# xmcd
#
# Track frame offsets:
#	150
#	18638
#	34880
#	53123
#	71354
#	88265
#	106371
#	120970
#	137598
#	156956
#	173471
#	187743
#	203396
#	220109
#
# Disc length: 3151 seconds
#
# Revision: 4
# Processed by: cddbd v1.5.2PL0 Copyright (c) Steve Scherf et al.
# Submitted via: EZCDAudioConverter 4.0.5.1
#
DISCID=b00c4d0e
DTITLE=Leonardo - Grandes Sucesso
DYEAR=2004
DGENRE=Sertanejo
TTITLE0=Uma Lágrima
TTITLE1=Fantasias
TTITLE2=Pouco A Pouco
TTITLE3=Vem Me Ajudar - Mar De Rosas
TTITLE4=A Desconhecida
TTITLE5=Pedaço De Meu Caminho
TTITLE6=Meu Mel
TTITLE7=Ninguém Vai Tirar Você De Mim
TTITLE8=Seresteiro Das Noites
TTITLE9=Perto Dos Olhos, Longe Do Coração
TTITLE10=Só Mais Uma Vez
TTITLE11=Ainda Queima A Esperança
TTITLE12=Última Canção
TTITLE13=Solidão De Amigos
EXTD=
EXTT0=
EXTT1=
EXTT2=
EXTT3=
EXTT4=
EXTT5=
EXTT6=
EXTT7=
EXTT8=
EXTT9=
EXTT10=
EXTT11=
EXTT12=
EXTT13=
PLAYORDER=
